# xmcd
#
# Track frame offsets:
#	183
#	25128
#	48388
#	72990
#	93128
#	124628
#	163345
#
# Disc length: 2510 seconds
# Revision: 0
# Processed by: cddbd v1.5.2PL0 Copyright (c) Steve Scherf et al.
# Submitted via: dBpowerAMP V12.0
#
DISCID=5609cc07
DTITLE=Black Box - Hold On
DYEAR=1992
DGENRE=House
TTITLE0=Hold On [The Strong]
TTITLE1=Hold On [The Fast Back]
TTITLE2=Hold On [The Dance Part 1]
TTITLE3=Hold On [The Dance Part 2]
TTITLE4=Hold On [The Techno Trip]
TTITLE5=Hold On [The Cocco Dub]
TTITLE6=Hold On [The Coco Dance]
EXTD=
EXTT0=
EXTT1=
EXTT2=
EXTT3=
EXTT4=
EXTT5=
EXTT6=
PLAYORDER=
